<svg width="26" height="26" viewBox="0 0 26 26" fill="none" xmlns="http://www.w3.org/2000/svg">
<path d="M10.6672 13C10.6672 11.7114 11.7116 10.6665 13.0003 10.6665C14.2889 10.6665 15.3339 11.7114 15.3339 13C15.3339 14.2886 14.2889 15.3335 13.0003 15.3335C11.7116 15.3335 10.6672 14.2886 10.6672 13ZM9.40571 13C9.40571 14.9852 11.015 16.5944 13.0003 16.5944C14.9856 16.5944 16.5949 14.9852 16.5949 13C16.5949 11.0148 14.9856 9.40557 13.0003 9.40557C11.015 9.40557 9.40571 11.0148 9.40571 13ZM15.8971 9.26309C15.8971 9.72674 16.2731 10.1033 16.7373 10.1033C17.201 10.1033 17.5776 9.72674 17.5776 9.26309C17.5776 8.79943 17.2016 8.42342 16.7373 8.42342C16.2731 8.42342 15.8971 8.79943 15.8971 9.26309ZM10.1719 18.6978C9.4894 18.6667 9.11846 18.5531 8.87193 18.4569C8.54509 18.3297 8.31213 18.1782 8.06672 17.9334C7.82188 17.6885 7.66978 17.4556 7.54312 17.1288C7.44699 16.8822 7.33333 16.5113 7.30223 15.8288C7.26831 15.091 7.26152 14.8693 7.26152 13C7.26152 11.1307 7.26887 10.9096 7.30223 10.1712C7.33333 9.48869 7.44755 9.11834 7.54312 8.87124C7.67034 8.54443 7.82188 8.31147 8.06672 8.06607C8.31156 7.82124 8.54453 7.66914 8.87193 7.54249C9.11846 7.44636 9.4894 7.33271 10.1719 7.30162C10.9098 7.26769 11.1315 7.2609 13.0003 7.2609C14.8697 7.2609 15.0908 7.26826 15.8292 7.30162C16.5117 7.33271 16.8821 7.44693 17.1292 7.54249C17.456 7.66914 17.689 7.82124 17.9344 8.06607C18.1792 8.3109 18.3308 8.54443 18.458 8.87124C18.5541 9.11777 18.6678 9.48869 18.6989 10.1712C18.7328 10.9096 18.7396 11.1307 18.7396 13C18.7396 14.8687 18.7328 15.0904 18.6989 15.8288C18.6678 16.5113 18.5536 16.8822 18.458 17.1288C18.3308 17.4556 18.1792 17.6885 17.9344 17.9334C17.6896 18.1782 17.456 18.3297 17.1292 18.4569C16.8827 18.5531 16.5117 18.6667 15.8292 18.6978C15.0913 18.7317 14.8697 18.7385 13.0003 18.7385C11.1315 18.7385 10.9098 18.7317 10.1719 18.6978ZM10.1142 6.04241C9.36896 6.07633 8.86005 6.19451 8.41504 6.36753C7.95476 6.5462 7.5646 6.78595 7.17501 7.17496C6.78598 7.56397 6.54623 7.95412 6.36754 8.41494C6.19452 8.85994 6.07634 9.36882 6.04241 10.1141C6.00792 10.8604 6 11.099 6 13C6 14.901 6.00792 15.1396 6.04241 15.8859C6.07634 16.6312 6.19452 17.1401 6.36754 17.5851C6.54623 18.0453 6.78541 18.436 7.17501 18.825C7.56404 19.2141 7.9542 19.4532 8.41504 19.6325C8.86062 19.8055 9.36896 19.9237 10.1142 19.9576C10.8612 19.9915 11.0992 20 13.0003 20C14.9019 20 15.1399 19.9921 15.8863 19.9576C16.6316 19.9237 17.1405 19.8055 17.5855 19.6325C18.0458 19.4532 18.436 19.2141 18.8256 18.825C19.2146 18.436 19.4538 18.0453 19.633 17.5851C19.8061 17.1401 19.9248 16.6312 19.9582 15.8859C19.9921 15.139 20 14.901 20 13C20 11.099 19.9921 10.8604 19.9582 10.1141C19.9242 9.36882 19.8061 8.85994 19.633 8.41494C19.4538 7.95468 19.2146 7.56454 18.8256 7.17496C18.4365 6.78595 18.0458 6.5462 17.5861 6.36753C17.1405 6.19451 16.6316 6.07577 15.8869 6.04241C15.1405 6.00848 14.9019 6 13.0008 6C11.0992 6 10.8612 6.00792 10.1142 6.04241Z" fill="#A6A6A6"/>
</svg>
